<?xml version="1.0" encoding="UTF-8"?>
<svg id="Layer_1" data-name="Layer 1" xmlns="http://www.w3.org/2000/svg" version="1.1" viewBox="0 0 400 400">
  <defs>
    <style>
      .cls-1 {
        fill: #fff;
        stroke-width: 0px;
      }
    </style>
  </defs>
  <path class="cls-1" d="M232.54,59.88c-5.55-12.4-24.25-3.89-24.25-3.89,15.72,10,24.25,3.89,24.25,3.89M201.63,58.06c1.94,0,3.53-1.6,3.53-3.54s-1.59-3.54-3.53-3.54-3.53,1.58-3.53,3.54,1.58,3.54,3.53,3.54M244.43,61.11s-6.78-.15-12.95,3.58l19.9.29q.35-.27.7-.52s-9.92-26.86-36.29-30.15c0,0,6.36,19.86,28.64,26.8M258.4,66.31c0-1.44-1.17-2.62-2.64-2.62s-2.63,1.18-2.63,2.62,1.18,2.64,2.63,2.64,2.64-1.17,2.64-2.64M152.12,64.98l19.91-.29c-6.2-3.73-12.96-3.58-12.96-3.58,22.29-6.95,28.65-26.8,28.65-26.8-26.37,3.3-36.29,30.15-36.29,30.15.35.25.36.25.7.52M145.74,67.75c0,1.46,1.18,2.64,2.63,2.64s2.64-1.18,2.64-2.64-1.18-2.64-2.64-2.64-2.63,1.18-2.63,2.64M147.37,88.98c-14.35-10.2-35.27-2.3-35.27-2.3,18.58-14.14,18.45-36.75,18.45-36.75-23.65,12.12-23.79,40.74-23.79,40.74,28.94,8.57,40.61-1.7,40.61-1.7M155.36,83.39l.21-9.68c-10.77-3.17-21.66-1.12-21.66-1.12,20.74-10.69,24.54-32.97,24.54-32.97-25.38,7.82-30.5,35.98-30.5,35.98,11.71,5.83,20.84,7.62,27.41,7.77M269.96,71.01s-8.64-2.63-19.53,1.09l-.03,9.95c6.63-.13,13.38-1.73,25.58-8.18,0,0-5.76-28.01-31.33-35.25,0,0,4.33,22.19,25.31,32.4M170.95,61.06s8.74,5.77,24.09-4.8c0,0-19.01-7.81-24.09,4.8M303.98,195.34h-11.12v14.06h11.12v-14.06ZM274,98.94l-5.74,6.85,31.09,31.09,6.29-6.3-31.64-31.63ZM334.5,97.99l-28.5-28.49-25.54,27.76,27.4,27.04,26.64-26.3ZM102.23,94.82c0,1.46,1.18,2.64,2.64,2.64s2.63-1.18,2.63-2.64-1.18-2.64-2.63-2.64-2.64,1.18-2.64,2.64M313.17,124.85c4.9,1.39,10.92,2.43,18.28,2.74,0,0,3.34-9.97,1.89-22.05l-9.62,9.21c1.03,2.43,2.34,4.91,3.98,7.33,0,0-2.66-2.2-6.9-4.54l-7.63,7.32ZM304.54,264.18h-11.11v14.06h11.11v-14.06ZM288.36,81.8l6.44-6.53c-2.73-9.23-8.28-20.37-22.01-27,0,0-.57,19.75,15.57,33.52M346.21,180.3c0,1.46,1.18,2.64,2.63,2.64s2.64-1.18,2.64-2.64-1.18-2.64-2.64-2.64-2.63,1.17-2.63,2.64M311.55,49.6c8.3,4.14,15.01-.2,15.01-.2,9.26-4.54,15.96,1.76,15.96,1.76,6.45,5.05,5.4,11.69,5.4,11.69,0,5.09-1.46,5.44-1.46,5.44-3.08,2.12-2.31-1.47-2.31-1.47.09-.04.7-2.5.7-2.5,1.21-11.5-9.1-13.16-9.1-13.16-10.93-1.9-13.68,8.22-13.68,8.22-.68,2.78-.75,5.25-.44,7.42l-13.66-13.67.64,11.56,30.53,30.53h10.93l-11.09-11.08c5.86,1.84,10.98,2.03,10.98,2.03,15.59-.96,17.23-15.86,17.23-15.86,4.11-15.58-10.66-28.16-10.66-28.16-9.85-8.47-24.75-9.16-24.75-9.16-21.19-2.46-28.72-16-28.72-16-2.48,6.16-1.83,15.28-1.83,15.28,1.41,14.05,10.33,17.33,10.33,17.33M349.96,175.98s17.76-22.43,6.85-46.69c0,0-14.21,17.58-8.55,40.24,0,0-11.4-19.22-28.97-20.24,0,0,2.7,15.31,30.66,26.69M331.92,134.82c1.46,0,2.65-1.18,2.65-2.65s-1.19-2.64-2.65-2.64-2.64,1.18-2.64,2.64,1.19,2.65,2.64,2.65M278.8,92.1l7.98-8.27c-6.79-1.57-19.58-3.83-29.9,3.87,0,0,5.3,6.01,21.92,4.4M342.8,150.97s13.62-25.18-1.32-47.16c0,0-10.94,19.77-1.43,41.1,0,0-14.57-16.97-32.05-14.9,0,0,5.32,14.61,34.8,20.96M249.57,343.31c0,1.46,1.2,2.64,2.64,2.64s2.65-1.18,2.65-2.64-1.18-2.64-2.65-2.64-2.64,1.19-2.64,2.64M262.8,340.78s14.94-12.83,15.07-28.85l-5.34.22c-4.83,4.23-11.88,13.21-15.81,31.41,0,0,25.2,13.6,47.17-1.35,0,0-19.79-10.95-41.1-1.43M238.19,349.01s19.24-11.41,20.23-28.98c0,0-15.32,2.7-26.69,30.66,0,0,22.43,17.76,46.68,6.87,0,0-17.57-14.22-40.22-8.55M212.37,354.5c19.98-9.25,24.42-24.8,24.42-24.8-15.54,1.1-28.86,24.42-28.86,24.42,17.4,17.76,39.96,15.54,39.96,15.54-10.36-13.68-35.52-15.16-35.52-15.16M201.27,346.35v6.58c-3.04-4.79-14.91-22.13-28.3-22.98,0,0,4.56,15.49,24.61,24.6,0,0-25.15,1.66-35.42,15.45,0,0,21.93,1.97,39.11-15.1v10.71h6.66v-19.26h-6.66ZM293.42,285.66v14.06l62.92,52.18h12.59l-64.04-66.24h-11.46ZM285.62,328.41s5.72-6.85,8.54-16.48l-10.73-.17c-1.69,5.26-2.99,11.96-3.3,20.44,0,0,23.18,7.69,41.74-5.75l-7.14-5.73c-7.92-.44-18.8.73-29.1,7.68M160.78,344.32c0-1.44-1.18-2.64-2.64-2.64s-2.65,1.19-2.65,2.64,1.19,2.64,2.65,2.64,2.64-1.17,2.64-2.64M336.71,270.7s3.62-22.06-9.19-34.11c0,0-7.78,13.45,6.32,40.13,0,0,28.04-5.76,35.26-31.35,0,0-22.19,4.34-32.39,25.33M310.76,317.39l-9.27-7.56c.2,2.37.49,4.86.94,7.53,0,0,3.35.4,8.34.03M296.73,320.82c1.46,0,2.65-1.18,2.65-2.64s-1.19-2.65-2.65-2.65-2.64,1.19-2.64,2.65,1.18,2.64,2.64,2.64M76.01,282.33c0,1.46,1.18,2.64,2.64,2.64s2.63-1.18,2.63-2.64-1.16-2.64-2.63-2.64-2.64,1.18-2.64,2.64M56.78,231.23c21.91-20.78,18.82-36.01,18.82-36.01-15.98,7.32-19.62,29.39-19.62,29.39-2.95-23.16-22.6-34.38-22.6-34.38-1.32,26.58,23.39,40.99,23.39,40.99M56.84,234.88c0,1.46,1.19,2.64,2.65,2.64s2.64-1.18,2.64-2.64-1.19-2.64-2.64-2.64-2.65,1.18-2.65,2.64M94.45,70.01l-20.41-20.59c-12.64-12.63-27.63-4.3-27.63-4.3l40.2,40.02c2.69-10.27,7.83-15.13,7.83-15.13M78.75,82.66l-34.69-34.72s-14.52,10.41-3.23,34.72h37.93ZM63.7,256.27c17.96-24.25,12.28-38.73,12.28-38.73-14.47,9.99-14.22,32.36-14.22,32.36-6.92-22.3-28.21-29.93-28.21-29.93,3.31,26.39,30.15,36.29,30.15,36.29M79.8,325.04s4.11-2.45,10.07-3.33l-6.6-1.55-.64.82c.37-.53.64-.82.64-.82l-29.31,30.84s-3.34,4.79-.18,7.95c0,0,2.95,2.41,7.02-.37l28.54-24.97c-2.88-1.48-9.19-6.74-9.54-8.57M135.37,312.51l-3.74-.03c-.2,16.58,15.75,29.66,15.75,29.66-21.54-9.02-41.05,2.38-41.05,2.38,22.32,14.42,47.17.24,47.17.24-4.84-20.16-13.32-28.81-18.14-32.26M74.87,279.76c13.46-27.01,5.39-40.28,5.39-40.28-12.55,12.35-8.4,34.34-8.4,34.34-10.7-20.76-32.98-24.55-32.98-24.55,7.83,25.39,35.99,30.49,35.99,30.49M151.28,321.3c1.41,17.53,20.9,28.48,20.9,28.48-22.77-5.12-40.02,9.5-40.02,9.5,24.49,10.32,46.51-7.96,46.51-7.96-12.03-27.67-27.4-30.01-27.4-30.01M88.51,109.22c29.98,3.4,39.68-8.74,39.68-8.74-15.88-7.55-35.12,3.86-35.12,3.86,15.86-17.14,11.8-39.38,11.8-39.38-21.21,16.03-16.37,44.27-16.37,44.27M89.94,300.95c8.57-28.93-1.7-40.6-1.7-40.6-10.18,14.34-2.3,35.26-2.3,35.26-14.14-18.57-36.75-18.44-36.75-18.44,12.13,23.65,40.74,23.78,40.74,23.78M309.13,277.27s-1.87,1.98-2.5,4.96l5.58,5.8c-.31-3.63-1.23-7.3-3.09-10.76M122.65,161.48l10.28,9.06h23.18c-1.12-1.84-.76-8.86-.76-8.86l-32.71-.2ZM180.16,93.61v-12.96h40.34v18.51h13.32v13.33h-12.95v5.92h12.95v14.43h-12.95v43.3h-11.1l-15.37-15.36-14.05,14.06-10.18-10.18,23.32-23.32,12.03,12.03v-59.77h-25.36ZM159.42,155.67c0,30.72,19.26,44.91,43.01,44.91s43.05-14.15,43.05-44.91v-87.58h-86.05s-.01,56.9-.01,87.58M127.7,105.12s-2.6,3.79-12.49,5.94l12.49,11.55v-17.49ZM237.73,232.99c2.8,0,2.8-2.12,2.84-4.27v-20.01h5.74v21.16c0,3.08-.35,8.32-8.62,8.32-5.35,0-8.55-2.51-8.55-7.94v-21.54h5.74v18.78c0,2.19-.27,5.5,2.85,5.5M252.49,244.06v5.38h-5.81v6.31h5.11v5.39h-5.11v6.54h5.91v5.41h-11.64v-29.03h11.54ZM250.94,208.71h6.45l1.67,4.03c.49,1.43,1.09,2.92,1.39,4.42h.06c.31-1.51.78-2.95,1.31-4.42l1.74-4.03h6.19l-6.19,14.05,6.65,14.96h-6.65l-1.85-4.6c-.54-1.47-.89-2.91-1.27-4.35h-.08c-.43,1.44-.76,2.88-1.27,4.35l-1.71,4.6h-6.45l6.14-14.96-6.14-14.05ZM268.4,273.09l-1.08-4.9h-5.81l-1.04,4.9h-5.69l6.73-29.03h6.05l6.97,29.03h-6.13ZM231.67,273.09l-1.38-20.92h-.09l-.93,7.16-2.45,13.76h-4.42l-2.82-13.91-.96-6.47v-.54h-.08l-.84,20.92h-6.17l2.54-29.03h7.56l2.81,17.13h.06l2.32-17.13h7.7l3.04,29.03h-5.9ZM213.06,208.71h5.74v23.63h6v5.38h-11.73v-29.01ZM205.7,204.23v98.43s5.56-5.52,13.33-5.52h61.08v-122.15h-32.95s-9.35,28.82-41.46,29.24M181.03,216.87c0-2.08-1-3.78-3.88-3.63h-.77v7.73l1,.04c2.62,0,3.64-1.76,3.64-4.14M264.36,251.51h-.08l-.62,4.39-1.22,7.73h4.04l-1.46-7.73-.65-4.39ZM109.83,122.2h.03c-1.05.81-8.38,7.52-19.54,8.86l3.8,3.59,39.97-.2-12.4-12.39h-.01l-6.29-6.29s-4.44,5.67-5.55,6.43M332.76,279.3c0-1.46-1.17-2.64-2.64-2.64s-2.63,1.18-2.63,2.64,1.18,2.64,2.63,2.64,2.64-1.18,2.64-2.64M348.18,234.18c1.46,0,2.65-1.19,2.65-2.65s-1.18-2.64-2.65-2.64-2.62,1.18-2.62,2.64,1.17,2.65,2.62,2.65M331.24,214.54s-5.31,14.62,13.21,38.45c0,0,26.61-10.54,29.28-36.99,0,0-21.08,8.11-27.49,30.57,0,0-.28-22.36-15-32.03M351.41,221.14s-4.14-22-20.29-28.94c0,0-2.72,15.3,19.66,35.57,0,0,24.39-15.01,22.42-41.51,0,0-19.37,11.67-21.79,34.88M320.02,257.62s-9.99,11.92-.74,40.63c0,0,28.61-.8,40.17-24.73,0,0-22.6.41-36.31,19.32,0,0,7.41-21.1-3.11-35.22M352.11,195.2s-7.9-20.92-25.04-24.98c0,0,0,15.56,25.55,31.62,0,0,21.4-19.02,14.87-44.79,0,0-17.05,14.85-15.38,38.14M333.77,310.32c4.39-2.73,8.55-6.44,12.02-11.52,0,0-9.54-1.24-20.69,2.53l8.67,8.98ZM167.17,255.73l-.67-4.41h-.08l-.61,4.41-1.24,7.72h4.05l-1.46-7.72ZM82.19,84.19c-18.09,19.48-8.42,46.42-8.42,46.42,30.12-1.84,37.56-15.47,37.56-15.47-16.96-4.68-33.92,9.89-33.92,9.89,12.62-19.64,4.78-40.84,4.78-40.84M195.18,317.31h17.36s1.14-7.54,6.05-7.54h72.1v-126.86l-7.17-7.54v125.7h-64.56s-8.69.77-15.49,9.07c0,0-5.27-7.93-16.59-8.67h-63.05v-124.96l-7.74,7.74v125.53h70.4s8.69.37,8.69,7.54M60.25,183.79c0-1.46-1.19-2.64-2.64-2.64s-2.64,1.18-2.64,2.64,1.17,2.62,2.64,2.62,2.64-1.18,2.64-2.62M57.92,172.91c5.14-22.76-9.48-39.99-9.48-39.99-10.33,24.5,7.96,46.51,7.96,46.51,27.68-12.03,30.01-27.4,30.01-27.4-17.53,1.41-28.49,20.88-28.49,20.88M38.42,160.92c-5.94,25.92,15.91,44.42,15.91,44.42,25.16-16.64,24.8-32.19,24.8-32.19-17.04,4.44-24.44,25.54-24.44,25.54,1.12-23.32-16.27-37.76-16.27-37.76M67.11,109.26s-1.51-9.41,8.3-23.48h-33.11s1.4,3.85,24.82,23.48M154.63,158.23v-3.59l-17.22-17.22h-40.33l22.77,20.81h34.78ZM113.07,303.87c.11,1.2.32-.27.32-.27v-17.16l-2.82,3.13c1.61,4.34,2.17,10.56,2.5,14.3M70.67,135.19c0,1.44,1.18,2.64,2.64,2.64s2.64-1.19,2.64-2.64-1.17-2.65-2.64-2.65-2.64,1.19-2.64,2.65M112.91,323.11c1.47,0,2.64-1.19,2.64-2.64s-1.17-2.64-2.64-2.64-2.63,1.19-2.63,2.64,1.18,2.64,2.63,2.64M131.31,126.52l23.33,22.92v-17.75l-23.33-23.32v18.15ZM113.18,262.9h-11.11v14.05h11.11v-14.05ZM267.7,111.89l-18.13,19.72.18,31.52s-.56,5.2-1.67,7.79h11.66l33.3-33.32-25.34-25.7ZM169.47,208.51v5.4h-5.81v6.31h5.12v5.39h-5.12v6.54h5.88v5.39h-11.61v-28.99l-8.05,28.99h-4.69l-8.39-29.03h6.14l3.47,13.95c.51,1.64.7,3.31,1.05,4.96h.06c.31-1.69.44-3.33.9-5.03l3.49-13.87h17.56ZM176.68,272.88h-6.12l-1.08-4.88h-5.81l-1.04,4.88h-5.7l6.74-29.02h6.04l6.97,29.02ZM170.64,208.51h5.78c3.65,0,10.2.39,10.2,8.33,0,3.18-1.28,5.92-4.12,7.48l5.05,13.22h-6.05l-5.04-13.4h-.08v13.4h-5.74v-29.03ZM188.67,208.51h5.74v29.03h-5.74v-29.03ZM184.43,273.35c-1.64,0-3.63-.49-4.94-1.47v-5.47c1.35.93,2.65,1.55,4.36,1.55,1.84,0,3.31-1.23,3.31-3.17,0-2.22-1.78-3.07-3.39-4.24-3.32-2.23-5.35-4.37-5.35-8.62,0-4.58,2.65-8.53,7.58-8.53,1.85,0,3.51.5,5.08,1.42v5.59c-1.15-1-2.57-1.85-4.15-1.85-1.78,0-2.9,1.06-2.9,2.84,0,4.78,8.74,5.05,8.74,12.9,0,5.17-2.94,9.05-8.33,9.05M155.89,249.26h-4.55v23.62h-5.74v-23.62h-4.5v-5.41h14.79v5.41ZM127.24,174.99v122.15h60.5c6.85.16,13.89,5.52,13.89,5.52v-97.7c-36.65-.8-44.05-29.97-44.05-29.97h-30.34ZM129.87,333.95c-.57-9.3-2.26-16.09-4.35-21.52h-10.73c2.91,10.2,9.49,17.87,9.49,17.87-19.63-12.62-40.84-4.78-40.84-4.78,19.48,18.09,46.42,8.43,46.42,8.43M93.47,138.29l-5.38-5.03c-13.04,3.31-22.52,14.87-22.52,14.87,6.13-14.65,2.82-28.35.06-35.63l-3.9-3.21c-11.32,21.43,1.22,44.96,1.22,44.96,17.38-4.19,26.22-11.04,30.52-15.97M64.22,302.86c16.04,21.19,44.24,16.36,44.24,16.36,3.41-30-8.72-39.72-8.72-39.72-7.53,15.91,3.87,35.12,3.87,35.12-17.14-15.83-39.38-11.77-39.38-11.77M112.81,196.46h-11.11v14.08h11.11v-14.08Z"/>
</svg>